<svg width="1111" height="647" viewBox="0 0 1111 647" fill="none" xmlns="http://www.w3.org/2000/svg">
<path d="M1084.28 151.51L1071.16 207.16C1035.95 197.967 959.702 178.444 936.375 173.902C907.215 168.224 899.284 152.027 884.048 147.14C873.1 157.806 848.377 180.75 837.065 187.204C822.926 195.27 772.61 234.265 792.839 289.063C813.068 343.861 885.185 344.94 911.982 351.435C938.778 357.931 980.559 375.009 981.186 430.345C981.814 485.681 961.655 520.697 973.953 531.468C972.195 529.854 967.64 526.923 963.479 528.108M963.479 528.108C958.277 529.59 962.913 520.05 959.832 513.286C956.751 506.522 949.968 508.022 951.765 499.146C953.562 490.271 885.676 485.823 852.016 487.628C818.356 489.433 749.801 493.117 722.003 498.432C704.131 501.85 711.079 511.206 714.313 517.494C716.547 521.839 717.088 525.211 705.518 536.727C693.948 548.243 696.166 562.607 720.043 576.568C743.92 590.528 799.921 592.739 799.921 592.739C799.921 592.739 819.37 564.847 862.094 567.524C897.611 569.751 952.676 569.776 957.944 569.916C970.44 570.249 956.853 539.636 963.479 528.108Z" stroke="black" stroke-width="2"/>
<path d="M1067.6 144.583L1082.84 149.471L1097.96 102.336L899.735 52.4041L878.659 118.106C875.503 127.946 864.208 146.132 844.28 140.159C819.37 132.694 748.206 104.09 717.16 99.382C686.114 94.674 513.988 100.896 431.603 128.554C349.218 156.211 123.082 252.227 101.137 255.165C79.1906 258.102 62.2666 243.746 69.8397 228.322C77.4128 212.898 97.357 219.296 107.704 234.692C118.05 250.088 145.44 313.484 161.78 346.03C178.12 378.577 227.777 462.768 228.711 489.322C229.458 510.566 232.208 518.799 233.489 520.26C244.583 517.868 267.774 512.25 271.785 508.915C276.797 504.747 287.532 489.288 302.373 487.222C313.366 485.691 323.379 481.829 330.556 482.085M330.556 482.085C333.066 482.174 335.23 482.767 336.967 484.141C343.668 489.441 347.073 496.835 355.589 494.84C364.105 492.846 368.435 484.259 365.677 478.123C362.919 471.987 357.629 465.564 347.226 468.529C336.823 471.493 337.341 481.449 330.556 482.085Z" stroke="black" stroke-width="2"/>
<path d="M364.536 475.132L419.522 474.917M419.522 474.917L420.205 479.336L411.392 479.66M419.522 474.917L419.298 469.069L426.727 468.826L427.751 475.456L422.855 475.986L422.496 472.195L435.018 471.486L434.937 467.784L441.262 467.712" stroke="black" stroke-width="2"/>
</svg>
